<svg xmlns="http://www.w3.org/2000/svg" xmlns:xlink="http://www.w3.org/1999/xlink" viewBox="0 0 1920 1080"><defs><style>.a{clip-path:url(#b);}.b{fill:#0daae6;}.b,.c{stroke:#707070;}.c{fill:#287dcc;}.d{stroke:none;}.e{fill:none;}.f{fill:#fff;}</style><clipPath id="b"><rect width="1920" height="1080"/></clipPath></defs><g id="a" class="a"><rect class="f" width="1920" height="1080"/><path class="b" d="M51.848-.08s129.97,147.087,347.5,146.744,232.93,27.922,306.532,102.841,367.285-77.522,436.28-.687,358.429,63.189,431.961-.68,288.312,254.73,438.453-9.484-.442,285.791-.442,285.791l-2012.864-43Z" transform="translate(-77.421 704.504) rotate(-5)"/><path class="c" d="M51.848-.08s129.97,147.087,347.5,146.744,232.93,27.922,306.532,102.841,367.285-77.522,436.28-.687,358.429,63.189,431.961-.68,288.312,254.73,438.453-9.484-.442,285.791-.442,285.791l-2012.864-43Z" transform="translate(-100.06 732.584) rotate(-5)"/><g transform="matrix(1, -0.017, 0.017, 1, 1781.387, 784.642)"><g class="b" transform="translate(0 7.475)"><circle class="d" cx="14.95" cy="14.95" r="14.95"/><circle class="e" cx="14.95" cy="14.95" r="14.45"/></g><g class="b" transform="translate(0 44.85)"><circle class="d" cx="14.95" cy="14.95" r="14.95"/><circle class="e" cx="14.95" cy="14.95" r="14.45"/></g><g class="b" transform="translate(29.9)"><circle class="d" cx="14.95" cy="14.95" r="14.95"/><circle class="e" cx="14.95" cy="14.95" r="14.45"/></g><g class="b" transform="translate(29.9 37.375)"><circle class="d" cx="14.95" cy="14.95" r="14.95"/><circle class="e" cx="14.95" cy="14.95" r="14.45"/></g></g></g></svg>