<svg xmlns="http://www.w3.org/2000/svg" xmlns:xlink="http://www.w3.org/1999/xlink" viewBox="0 0 1920 1080"><defs><style>.a{clip-path:url(#b);}.b{fill:#0daae6;}.b,.c,.d,.e,.f{stroke:#707070;}.c{fill:#287dcc;}.d{fill:#3cb0dc;}.e{fill:#49c0ee;}.f,.i{fill:#fff;}.g{stroke:none;}.h{fill:none;}</style><clipPath id="b"><rect width="1920" height="1080"/></clipPath></defs><g id="a" class="a"><rect class="i" width="1920" height="1080"/><path class="b" d="M51.848-.08s129.97,147.087,347.5,146.744,232.93,27.922,306.532,102.841,367.285-77.522,436.28-.687,358.429,63.189,431.961-.68,288.312,254.73,438.453-9.484-.442,285.791-.442,285.791l-2012.864-43Z" transform="translate(-77.421 704.504) rotate(-5)"/><path class="c" d="M51.848-.08s129.97,147.087,347.5,146.744,232.93,27.922,306.532,102.841,367.285-77.522,436.28-.687,358.429,63.189,431.961-.68,288.312,254.73,438.453-9.484-.442,285.791-.442,285.791l-2012.864-43Z" transform="translate(-73.06 737.584) rotate(-5)"/><g class="d" transform="matrix(1, -0.017, 0.017, 1, 1781.518, 792.116)"><circle class="g" cx="14.95" cy="14.95" r="14.95"/><circle class="h" cx="14.95" cy="14.95" r="14.45"/></g><g class="b" transform="matrix(1, -0.017, 0.017, 1, 1782.17, 829.485)"><circle class="g" cx="14.95" cy="14.95" r="14.95"/><circle class="h" cx="14.95" cy="14.95" r="14.45"/></g><g class="c" transform="matrix(1, -0.017, 0.017, 1, 1811.283, 760.12)"><circle class="g" cx="14.95" cy="14.95" r="14.95"/><circle class="h" cx="14.95" cy="14.95" r="14.45"/></g><g class="e" transform="matrix(1, -0.017, 0.017, 1, 1841.935, 729.489)"><circle class="g" cx="14.95" cy="14.95" r="14.95"/><circle class="h" cx="14.95" cy="14.95" r="14.45"/></g><path class="f" d="M0,982.4s372.12,148.124,848.723,116.7,1029.392-149.277,1069.391,0S993.006,1232.77,993.006,1232.77H294.931s-233.4-48.8-244.008-48.8S-61.532,1099.1-61.532,1099.1Z" transform="translate(0 -17)"/></g></svg>