<svg xmlns="http://www.w3.org/2000/svg" xmlns:xlink="http://www.w3.org/1999/xlink" viewBox="0 0 1920 1080"><defs><style>.a{clip-path:url(#b);}.b{fill:#0daae6;}.c{fill:#287dcc;}.d{fill:#3cb0dc;}.e{fill:#49c0ee;}.f{fill:#fff;}</style><clipPath id="b"><rect width="1920" height="1080"/></clipPath></defs><g id="a" class="a"><rect class="f" width="1920" height="1080"/><g transform="translate(-7 -62)"><path class="b" d="M52.828.184s131.1,142.41,349.649,142.839S636.6,170.783,710.811,243.347s368.744-73.536,438.332.859,360.337,62.236,433.992.851,290.559,246.852,440.485-7.623.553,275.821.553,275.821L1.681,464.734Z" transform="translate(-78.158 698.11) rotate(-5)"/><path class="c" d="M52.828.184s131.1,142.41,349.649,142.839S636.6,170.783,710.811,243.347s368.744-73.536,438.332.859,360.337,62.236,433.992.851,290.558,246.852,440.485-7.623.553,275.821.553,275.821L1.681,464.734Z" transform="translate(-73.796 731.19) rotate(-5)"/><circle class="d" cx="14.95" cy="14.95" r="14.95" transform="matrix(1, -0.017, 0.017, 1, 1792.136, 782.709)"/><circle class="b" cx="14.95" cy="14.95" r="14.95" transform="matrix(1, -0.017, 0.017, 1, 1792.789, 818.768)"/><circle class="c" cx="14.95" cy="14.95" r="14.95" transform="matrix(1, -0.017, 0.017, 1, 1821.901, 751.834)"/><circle class="e" cx="14.95" cy="14.95" r="14.95" transform="matrix(1, -0.017, 0.017, 1, 1852.554, 722.277)"/><path class="f" d="M.33,982.4S374.445,1130.521,853.6,1099.1s1034.91-149.277,1075.123,0S998.659,1232.77,998.659,1232.77H296.842s-234.65-48.8-245.316-48.8S-61.532,1099.1-61.532,1099.1Z" transform="translate(0 -41.763)"/></g><path class="c" d="M214.3,1004.326S5.944,987.521,5.944,1143.2s-36.9,39.3-36.9,39.3L-70.02,967.643l17.363-78.606Z" transform="translate(23.34 -55.192)"/></g></svg>